# 
# Generated by Sweet Home 3D - Mon Apr 16 18:30:31 IST 2018
# http://www.sweethome3d.com/
# 
mtllib Mobile.mtl
g bottom_1
usemtl bottom
v 361.5 0.0 127.559235
v 505.5 0.0 127.559235
v 505.5 0.0 425.55923
v 361.5 0.0 425.55923
vt 0.0 0.0 0
vt 1.0 0.0 0
vt 1.0 1.0 0
vt 0.0 1.0 0
vn 0.0 -0.99999994 0.0
f 1/1/1 2/2/1 3/3/1
f 1/1/1 3/3/1 4/4/1
g top_2
usemtl top
v 361.5 8.54 127.559235
v 361.5 8.54 425.55923
v 505.5 8.54 425.55923
v 505.5 8.54 127.559235
vn 0.0 0.99999994 0.0
f 5/4/2 6/1/2 7/2/2
f 5/4/2 7/2/2 8/3/2
g left_3
usemtl left
vn -1.0 0.0 0.0
f 1/1/3 4/2/3 6/3/3
f 1/1/3 6/3/3 5/4/3
g right_4
usemtl right
vn 1.0 0.0 0.0
f 2/2/4 8/3/4 7/4/4
f 2/2/4 7/4/4 3/1/4
g back_5
usemtl back
vn 0.0 0.0 -1.0
f 1/2/5 5/3/5 8/4/5
f 1/2/5 8/4/5 2/1/5
g front_6
usemtl front
vn 0.0 0.0 1.0
f 3/2/6 7/3/6 6/4/6
f 3/2/6 6/4/6 4/1/6
g bottom_7
usemtl bottom_bottom_7
v 365.5 0.0 151.55923
v 501.5 0.0 151.55923
v 501.5 0.0 403.55923
v 365.5 0.0 403.55923
vt 0.0 0.88188976 0
vt 0.26771653 0.88188976 0
vt 0.26771653 0.0 0
vn 0.0 -1.0 0.0
f 9/5/7 10/6/7 11/7/7
f 9/5/7 11/7/7 12/1/7
g top_8
usemtl top_top_8
v 365.5 8.85698 151.55923
v 365.5 8.85698 403.55923
v 501.5 8.85698 403.55923
v 501.5 8.85698 151.55923
vt 0.0 0.91288537 0
vt 0.0 0.030995553 0
vt 0.26771653 0.030995553 0
vt 0.26771653 0.91288537 0
vn 0.0 1.0 0.0
f 13/8/8 14/9/8 15/10/8
f 13/8/8 15/10/8 16/11/8
g left_9
usemtl left_left_9
f 9/5/3 12/1/3 14/9/3
f 9/5/3 14/9/3 13/8/3
g right_10
usemtl right_right_10
f 10/6/4 16/11/4 15/10/4
f 10/6/4 15/10/4 11/7/4
g back_11
usemtl back_back_11
f 9/5/5 13/8/5 16/11/5
f 9/5/5 16/11/5 10/6/5
g front_12
usemtl front_front_12
f 11/7/6 15/10/6 14/9/6
f 11/7/6 14/9/6 12/1/6
